<?xml version="1.0" encoding="iso-8859-1"?>
<!-- Generator: Adobe Illustrator 21.0.0, SVG Export Plug-In . SVG Version: 6.00 Build 0)  -->
<svg version="1.1" id="&#x56FE;&#x5C42;_1" xmlns="http://www.w3.org/2000/svg" xmlns:xlink="http://www.w3.org/1999/xlink" x="0px"
	 y="0px" viewBox="0 0 110 37" style="enable-background:new 0 0 110 37;" xml:space="preserve">
<g>
	<g>
		<g>
			<polygon style="fill:#231815;" points="4.521,33.2 1.732,33.2 1.732,30.744 0.496,30.744 0.496,36.832 1.732,36.832 1.732,34.36 
				4.521,34.36 4.521,36.832 5.756,36.832 5.756,30.744 4.521,30.744 			"/>
			<path style="fill:#231815;" d="M11.479,34.229c0,0.99-0.492,1.519-1.384,1.519c-0.898,0-1.392-0.543-1.392-1.56v-3.439H7.468
				v3.481c0,1.712,0.951,2.695,2.611,2.695c1.675,0,2.635-1,2.635-2.745v-3.434h-1.235V34.229z"/>
			<polygon style="fill:#231815;" points="25.755,34.93 24.372,30.743 23.364,30.743 21.982,34.93 20.638,30.747 19.323,30.747 
				21.444,36.832 22.467,36.832 23.852,32.835 25.236,36.832 26.267,36.832 28.383,30.747 27.103,30.747 			"/>
			<polygon style="fill:#231815;" points="30.598,34.212 32.845,34.212 32.845,33.103 30.598,33.103 30.598,31.857 33.859,31.857 
				33.859,30.748 29.379,30.748 29.379,36.828 33.976,36.828 33.976,35.72 30.598,35.72 			"/>
			<rect x="35.45" y="30.744" style="fill:#231815;" width="1.219" height="6.08"/>
			<path style="fill:#231815;" d="M17.942,35.561l0.547,1.267h1.295l-2.657-6.049l-0.024-0.035h-1.08l-2.682,6.084h1.261
				l0.517-1.178l0.037-0.089H17.942z M16.546,32.285l0.881,2.038h-0.003l0.059,0.141h-1.867l0.059-0.141h-0.002L16.546,32.285z"/>
			<g>
				<g>
					<defs>
						<path id="SVGID_1_" d="M3.042,10.793c0.12,2.269,1.835,3.613,1.835,3.613c2.762,2.68,9.45,6.066,11.004,6.834
							c0.022,0.008,0.102,0.034,0.149-0.026c0,0,0.065-0.05,0.031-0.135h0.001C11.806,11.82,5.984,4.799,5.984,4.799
							S2.816,7.793,3.042,10.793"/>
					</defs>
					<clipPath id="SVGID_2_">
						<use xlink:href="#SVGID_1_"  style="overflow:visible;"/>
					</clipPath>
					
						<radialGradient id="SVGID_3_" cx="-1945.1072" cy="631.5298" r="0.089" gradientTransform="matrix(293.2641 0 0 -292.0826 570453.375 184462.2344)" gradientUnits="userSpaceOnUse">
						<stop  offset="0" style="stop-color:#F6BEA3"/>
						<stop  offset="0.0528" style="stop-color:#F4A691"/>
						<stop  offset="0.427" style="stop-color:#E50012"/>
						<stop  offset="0.6862" style="stop-color:#E30011"/>
						<stop  offset="0.7902" style="stop-color:#DC0010"/>
						<stop  offset="0.8664" style="stop-color:#D0000D"/>
						<stop  offset="0.929" style="stop-color:#BE0008"/>
						<stop  offset="0.9827" style="stop-color:#A80002"/>
						<stop  offset="1" style="stop-color:#9F0000"/>
					</radialGradient>
					<rect x="2.816" y="4.799" style="clip-path:url(#SVGID_2_);fill:url(#SVGID_3_);" width="13.279" height="16.475"/>
				</g>
				<g>
					<defs>
						<path id="SVGID_4_" d="M3.719,23.791c1.208,2.144,3.241,3.81,5.359,3.298c1.462-0.363,4.773-2.664,5.866-3.442l-0.003-0.002
							c0.084-0.076,0.054-0.138,0.054-0.138c-0.027-0.099-0.143-0.099-0.143-0.099v-0.003L3.719,23.791z"/>
					</defs>
					<clipPath id="SVGID_5_">
						<use xlink:href="#SVGID_4_"  style="overflow:visible;"/>
					</clipPath>
					
						<radialGradient id="SVGID_6_" cx="-1945.1063" cy="631.5297" r="0.0892" gradientTransform="matrix(293.2812 0 0 -292.0997 570486.375 184472.9688)" gradientUnits="userSpaceOnUse">
						<stop  offset="0" style="stop-color:#F6BEA3"/>
						<stop  offset="0.0528" style="stop-color:#F4A691"/>
						<stop  offset="0.427" style="stop-color:#E50012"/>
						<stop  offset="0.6862" style="stop-color:#E30011"/>
						<stop  offset="0.7902" style="stop-color:#DC0010"/>
						<stop  offset="0.8664" style="stop-color:#D0000D"/>
						<stop  offset="0.929" style="stop-color:#BE0008"/>
						<stop  offset="0.9827" style="stop-color:#A80002"/>
						<stop  offset="1" style="stop-color:#9F0000"/>
					</radialGradient>
					<rect x="3.719" y="23.405" style="clip-path:url(#SVGID_5_);fill:url(#SVGID_6_);" width="11.307" height="4.196"/>
				</g>
				<g>
					<defs>
						<path id="SVGID_7_" d="M1.056,18.813c1.207,2.543,3.514,3.313,3.514,3.313c1.065,0.436,2.13,0.465,2.13,0.465
							c0.167,0.031,6.622,0.003,8.351-0.005c0.073-0.001,0.114-0.075,0.114-0.075c0.054-0.087-0.042-0.165-0.042-0.165l0.001-0.001
							c-4.89-3.286-14.368-8.33-14.368-8.33C-0.106,16.673,1.056,18.813,1.056,18.813"/>
					</defs>
					<clipPath id="SVGID_8_">
						<use xlink:href="#SVGID_7_"  style="overflow:visible;"/>
					</clipPath>
					
						<radialGradient id="SVGID_9_" cx="-1945.1069" cy="631.5298" r="0.0892" gradientTransform="matrix(293.2418 0 0 -292.0604 570409.9375 184448.1719)" gradientUnits="userSpaceOnUse">
						<stop  offset="0" style="stop-color:#F6BEA3"/>
						<stop  offset="0.0528" style="stop-color:#F4A691"/>
						<stop  offset="0.427" style="stop-color:#E50012"/>
						<stop  offset="0.6862" style="stop-color:#E30011"/>
						<stop  offset="0.7902" style="stop-color:#DC0010"/>
						<stop  offset="0.8664" style="stop-color:#D0000D"/>
						<stop  offset="0.929" style="stop-color:#BE0008"/>
						<stop  offset="0.9827" style="stop-color:#A80002"/>
						<stop  offset="1" style="stop-color:#9F0000"/>
					</radialGradient>
					<rect x="-0.106" y="14.016" style="clip-path:url(#SVGID_8_);fill:url(#SVGID_9_);" width="15.324" height="8.606"/>
				</g>
				<g>
					<defs>
						<path id="SVGID_10_" d="M14.111,0.35c-2.948,0.759-3.644,3.423-3.644,3.423C9.929,5.45,10.481,7.29,10.481,7.29
							c0.984,4.348,5.826,11.493,6.866,12.994c0.074,0.074,0.132,0.047,0.132,0.047c0.112-0.031,0.104-0.139,0.104-0.139
							l0.002,0.001C19.186,4.24,15.903,0.011,15.903,0.011C15.419,0.053,14.111,0.35,14.111,0.35"/>
					</defs>
					<clipPath id="SVGID_11_">
						<use xlink:href="#SVGID_10_"  style="overflow:visible;"/>
					</clipPath>
					
						<radialGradient id="SVGID_12_" cx="-1945.0034" cy="631.5306" r="0.0892" gradientTransform="matrix(293.2483 0 0 -292.0669 570392.1875 184452.5469)" gradientUnits="userSpaceOnUse">
						<stop  offset="0" style="stop-color:#F6BEA3"/>
						<stop  offset="0.0528" style="stop-color:#F4A691"/>
						<stop  offset="0.427" style="stop-color:#E50012"/>
						<stop  offset="0.6862" style="stop-color:#E30011"/>
						<stop  offset="0.7902" style="stop-color:#DC0010"/>
						<stop  offset="0.8664" style="stop-color:#D0000D"/>
						<stop  offset="0.929" style="stop-color:#BE0008"/>
						<stop  offset="0.9827" style="stop-color:#A80002"/>
						<stop  offset="1" style="stop-color:#9F0000"/>
					</radialGradient>
					<rect x="9.929" y="0.011" style="clip-path:url(#SVGID_11_);fill:url(#SVGID_12_);" width="9.258" height="20.346"/>
				</g>
				<g>
					<defs>
						<path id="SVGID_13_" d="M19.503,20.204h0.002c0.012,0.1,0.085,0.122,0.085,0.122c0.108,0.042,0.162-0.062,0.162-0.062
							l0.001,0.001c1.068-1.539,5.882-8.645,6.861-12.976c0,0,0.531-2.097,0.018-3.517c0,0-0.728-2.705-3.68-3.421
							c0,0-0.851-0.215-1.753-0.342C21.198,0.011,17.899,4.242,19.503,20.204"/>
					</defs>
					<clipPath id="SVGID_14_">
						<use xlink:href="#SVGID_13_"  style="overflow:visible;"/>
					</clipPath>
					
						<radialGradient id="SVGID_15_" cx="-1945.111" cy="631.5322" r="0.0891" gradientTransform="matrix(293.5766 0 0 -292.3939 571062.375 184659.4688)" gradientUnits="userSpaceOnUse">
						<stop  offset="0" style="stop-color:#F6BEA3"/>
						<stop  offset="0.0528" style="stop-color:#F4A691"/>
						<stop  offset="0.427" style="stop-color:#E50012"/>
						<stop  offset="0.6862" style="stop-color:#E30011"/>
						<stop  offset="0.7902" style="stop-color:#DC0010"/>
						<stop  offset="0.8664" style="stop-color:#D0000D"/>
						<stop  offset="0.929" style="stop-color:#BE0008"/>
						<stop  offset="0.9827" style="stop-color:#A80002"/>
						<stop  offset="1" style="stop-color:#9F0000"/>
					</radialGradient>
					<rect x="17.899" y="0.011" style="clip-path:url(#SVGID_14_);fill:url(#SVGID_15_);" width="9.245" height="20.357"/>
				</g>
				<g>
					<defs>
						<path id="SVGID_16_" d="M22.225,23.415c0,0-0.098,0.013-0.125,0.086c0,0-0.023,0.099,0.043,0.149l-0.002,0.001
							c1.066,0.761,4.297,3.011,5.854,3.448c0,0,2.878,0.977,5.378-3.301l-11.147-0.387L22.225,23.415z"/>
					</defs>
					<clipPath id="SVGID_17_">
						<use xlink:href="#SVGID_16_"  style="overflow:visible;"/>
					</clipPath>
					
						<radialGradient id="SVGID_18_" cx="-1945.1124" cy="631.5324" r="0.0892" gradientTransform="matrix(293.5503 0 0 -292.3676 571011.625 184642.9219)" gradientUnits="userSpaceOnUse">
						<stop  offset="0" style="stop-color:#F6BEA3"/>
						<stop  offset="0.0528" style="stop-color:#F4A691"/>
						<stop  offset="0.427" style="stop-color:#E50012"/>
						<stop  offset="0.6862" style="stop-color:#E30011"/>
						<stop  offset="0.7902" style="stop-color:#DC0010"/>
						<stop  offset="0.8664" style="stop-color:#D0000D"/>
						<stop  offset="0.929" style="stop-color:#BE0008"/>
						<stop  offset="0.9827" style="stop-color:#A80002"/>
						<stop  offset="1" style="stop-color:#9F0000"/>
					</radialGradient>
					<rect x="22.077" y="23.412" style="clip-path:url(#SVGID_17_);fill:url(#SVGID_18_);" width="11.296" height="4.664"/>
				</g>
				<g>
					<defs>
						<path id="SVGID_19_" d="M21.98,22.338l0.001,0.002c0,0-0.088,0.058-0.058,0.162c0,0,0.046,0.083,0.115,0.083v0.001
							c1.751,0.002,8.384,0.011,8.551-0.02c0,0,0.857-0.034,1.917-0.439c0,0,2.358-0.747,3.584-3.415c0,0,1.093-2.176,0.247-4.718
							C36.336,13.993,26.873,19.052,21.98,22.338"/>
					</defs>
					<clipPath id="SVGID_20_">
						<use xlink:href="#SVGID_19_"  style="overflow:visible;"/>
					</clipPath>
					
						<radialGradient id="SVGID_21_" cx="-1945.1118" cy="631.5319" r="0.0891" gradientTransform="matrix(293.5413 0 0 -292.3587 570993.875 184637.1719)" gradientUnits="userSpaceOnUse">
						<stop  offset="0" style="stop-color:#F6BEA3"/>
						<stop  offset="0.0528" style="stop-color:#F4A691"/>
						<stop  offset="0.427" style="stop-color:#E50012"/>
						<stop  offset="0.6862" style="stop-color:#E30011"/>
						<stop  offset="0.7902" style="stop-color:#DC0010"/>
						<stop  offset="0.8664" style="stop-color:#D0000D"/>
						<stop  offset="0.929" style="stop-color:#BE0008"/>
						<stop  offset="0.9827" style="stop-color:#A80002"/>
						<stop  offset="1" style="stop-color:#9F0000"/>
					</radialGradient>
					<rect x="21.893" y="13.993" style="clip-path:url(#SVGID_20_);fill:url(#SVGID_21_);" width="15.29" height="8.603"/>
				</g>
				<g>
					<defs>
						<path id="SVGID_22_" d="M21.052,21.039l0.002-0.001c0,0-0.05,0.107,0.031,0.177c0,0,0.077,0.057,0.15,0.011v0.001
							c1.595-0.789,8.232-4.152,10.981-6.82c0,0,1.74-1.393,1.832-3.628c0.2-3.105-2.937-5.979-2.937-5.979
							S25.306,11.798,21.052,21.039"/>
					</defs>
					<clipPath id="SVGID_23_">
						<use xlink:href="#SVGID_22_"  style="overflow:visible;"/>
					</clipPath>
					
						<radialGradient id="SVGID_24_" cx="-1945.1117" cy="631.5329" r="0.0891" gradientTransform="matrix(293.5521 0 0 -292.3694 571014.875 184644.2188)" gradientUnits="userSpaceOnUse">
						<stop  offset="0" style="stop-color:#F6BEA3"/>
						<stop  offset="0.0528" style="stop-color:#F4A691"/>
						<stop  offset="0.427" style="stop-color:#E50012"/>
						<stop  offset="0.6862" style="stop-color:#E30011"/>
						<stop  offset="0.7902" style="stop-color:#DC0010"/>
						<stop  offset="0.8664" style="stop-color:#D0000D"/>
						<stop  offset="0.929" style="stop-color:#BE0008"/>
						<stop  offset="0.9827" style="stop-color:#A80002"/>
						<stop  offset="1" style="stop-color:#9F0000"/>
					</radialGradient>
					<rect x="21.004" y="4.799" style="clip-path:url(#SVGID_23_);fill:url(#SVGID_24_);" width="13.245" height="16.473"/>
				</g>
			</g>
		</g>
		<g>
			<g>
				<path d="M52.825,17.671c-0.227-0.769-0.467-1.469-0.719-2.099c1.916-1.286,3.587-3.001,5.012-5.144l1.91,0.699
					c-0.669,0.959-1.343,1.841-2.024,2.648v6.714h-1.948v-4.69C54.439,16.391,53.695,17.015,52.825,17.671z M52.201,24.082v-1.853
					h7.773v-1.891h2.024v1.891h7.773v1.853h-7.773v4.18h-2.024v-4.18H52.201z M58.367,18.125c-0.227-0.605-0.473-1.185-0.738-1.74
					c1.324-0.403,2.559-0.826,3.707-1.267v-4.407h1.967v3.536c1.488-0.693,3.038-1.608,4.653-2.742l1.21,1.4
					c-1.891,1.274-3.846,2.377-5.863,3.31v0.945c-0.063,0.87,0.384,1.274,1.343,1.21h1.551c0.845,0.038,1.324-0.309,1.437-1.04
					c0.101-0.454,0.195-1.097,0.284-1.929c0.63,0.24,1.254,0.448,1.872,0.624c-0.126,0.958-0.271,1.727-0.435,2.307
					c-0.252,1.198-1.16,1.778-2.723,1.74h-2.742c-1.79,0.088-2.642-0.757-2.553-2.534v-0.492
					C60.642,17.337,59.653,17.696,58.367,18.125z"/>
				<path d="M73.629,28.338c-0.567-0.694-1.085-1.28-1.551-1.759c4.198-2.585,6.424-5.869,6.676-9.853h-6.222v-1.891h6.43
					c0.113-1.122,0.189-2.597,0.227-4.425h2.175c-0.063,1.526-0.151,3.001-0.265,4.425h7.716c-0.151,4.249-0.296,7.363-0.435,9.343
					c-0.05,2.471-1.248,3.694-3.593,3.669c-1.122,0.038-2.326,0.057-3.612,0.057c-0.164-0.92-0.328-1.645-0.492-2.175
					c0.971,0.063,2.08,0.095,3.329,0.095c0.844,0.013,1.418-0.145,1.721-0.473c0.328-0.303,0.523-0.901,0.586-1.797
					c0.164-2.66,0.265-4.936,0.303-6.827H80.91C80.57,21.554,78.142,25.425,73.629,28.338z M76.144,14.513
					c-0.618-0.744-1.444-1.645-2.477-2.705l1.437-1.191c0.908,0.832,1.784,1.677,2.629,2.534L76.144,14.513z M83.615,23.08
					c-0.744-0.882-1.69-1.904-2.837-3.064l1.418-1.192c1.009,0.92,2.005,1.86,2.988,2.818L83.615,23.08z"/>
				<path d="M91.936,19.051v-1.967h17.626v1.967h-8.851c-1.425,2.017-2.944,3.934-4.558,5.749c1.589-0.012,4.426-0.107,8.511-0.284
					c-0.87-1.122-1.683-2.156-2.44-3.101l1.664-1.021c1.967,2.333,3.662,4.413,5.087,6.241l-1.816,1.229l-1.116-1.513
					c-2.9,0.088-6.147,0.239-9.74,0.454c-0.958,0.063-1.772,0.158-2.44,0.284l-1.002-2.118c0.668-0.378,1.324-0.933,1.967-1.664
					c1.147-1.286,2.2-2.704,3.158-4.255H91.936z M93.525,13.548v-1.986h14.374v1.986H93.525z"/>
			</g>
		</g>
	</g>
</g>
</svg>